# xmcd
#
# Track frame offsets: 
#        150
#        10917
#        15247
#        22926
#        30506
#        41638
#        53659
#        59684
#        70763
#        74185
#        79099
#        83194
#        87460
#        90640
#        94211
#        98377
#        104367
#        111798
#        119230
#        127840
#        131617
#        137657
#        147869
#        152701
#        157375
#        165082
#        170178
#        172671
#        180023
#        191912
#        201648
#        208111
#        222210
#        226376
#        233800
#        236621
#        240266
#        243354
#        247558
#        250897
#
# Disc length: 3468 seconds
#
# Revision: 0
# Processed by: cddbd v1.5.1PL0 Copyright (c) Steve Scherf et al.
# Submitted via: ExactAudioCopy v0.95b2
#
DISCID=1a0d8a28
DTITLE=Matt Glaser - Texas and Swing Fiddle CD2
DYEAR=1900
DGENRE=Country
TTITLE0=Benny Thomasson Discussed
TTITLE1=Billy in the Lowground - Played
TTITLE2=Billy in the Lowground - A Part and Variation Broken Down
TTITLE3=Billy in the Lowground - Bridge Broken Down
TTITLE4=Billy in the Lowground - Whole Tune Played Phrase by Phrase Sl
TTITLE4=owly
TTITLE5=Billy in the Lowground - Variations
TTITLE6=Lady's Fancy - Explained
TTITLE7=Lady's Fancy - Played
TTITLE8=Lady's Fancy - Tuning the Fiddle Down
TTITLE9=Lady's Fancy - Variation 1
TTITLE10=Lady's Fancy - Variation 2
TTITLE11=Lady's Fancy - Variation 3
TTITLE12=Lady's Fancy - Variation 4
TTITLE13=Lady's Fancy - Variation 4a
TTITLE14=Lady's Fancy - Variation 5
TTITLE15=Lady's Fancy - Tag
TTITLE16=Lady's Fancy - Back to Second Part
TTITLE17=Lady's Fancy - Tuned Down Variation
TTITLE18=Ace of Spades - Played
TTITLE19=Ace of Spades - Explained
TTITLE20=Ace of Spades - First Part
TTITLE21=Ace of Spades - Second Part
TTITLE22=Ace of Spades - Third Part
TTITLE23=Ace of Spades - Third Part Variation
TTITLE24=Sally Johnson 1 - Played
TTITLE25=Sally Johnson 1 - Second Variation
TTITLE26=Sally Johnson 1 - Third Variation
TTITLE27=Sally Johnson 1 - Fourth Variation
TTITLE28=Sally Johnson 1 - First Part
TTITLE29=Sally Johnson 1 - Second Part
TTITLE30=Sally Johnson 2 - Mark and Benny Discussed
TTITLE31=Sally Johnson 2 - Played and Broken Down
TTITLE32=Sally Johnson 2 - Texas Fiddling Discussed
TTITLE33=Dusty Miller - Played
TTITLE34=Dusty Miller - Explained
TTITLE35=Dusty Miller - First Part
TTITLE36=Dusty Miller - Second Part
TTITLE37=Dusty Miller - Third Part
TTITLE38=Dusty Miller - Fourth Part
TTITLE39=Dusty Miller - Whole Tune Played Slowly
EXTD=
EXTT0=
EXTT1=
EXTT2=
EXTT3=
EXTT4=
EXTT5=
EXTT6=
EXTT7=
EXTT8=
EXTT9=
EXTT10=
EXTT11=
EXTT12=
EXTT13=
EXTT14=
EXTT15=
EXTT16=
EXTT17=
EXTT18=
EXTT19=
EXTT20=
EXTT21=
EXTT22=
EXTT23=
EXTT24=
EXTT25=
EXTT26=
EXTT27=
EXTT28=
EXTT29=
EXTT30=
EXTT31=
EXTT32=
EXTT33=
EXTT34=
EXTT35=
EXTT36=
EXTT37=
EXTT38=
EXTT39=
PLAYORDER=
